<svg xmlns="http://www.w3.org/2000/svg" xmlns:xlink="http://www.w3.org/1999/xlink" width="48" zoomAndPan="magnify" viewBox="0 0 36 36.000001" height="48" preserveAspectRatio="xMidYMid meet" version="1.0"><defs><clipPath id="888fba93f9"><path d="M 1 1.050781 L 35 1.050781 L 35 33.886719 L 1 33.886719 Z M 1 1.050781 " clip-rule="nonzero"/></clipPath></defs><g clip-path="url(#888fba93f9)"><path fill="#c181f7" d="M 15.832031 2 C 8.410156 2.824219 2.359375 8.816406 1.460938 16.230469 C 1.347656 17.160156 1.308594 18.097656 1.355469 19.039062 C 1.398438 19.976562 1.523438 20.90625 1.730469 21.824219 C 1.933594 22.742188 2.214844 23.632812 2.570312 24.503906 C 2.929688 25.375 3.359375 26.207031 3.859375 27 C 4.359375 27.796875 4.925781 28.542969 5.554688 29.242188 C 6.183594 29.941406 6.867188 30.582031 7.609375 31.164062 C 8.347656 31.742188 9.128906 32.257812 9.957031 32.703125 C 10.785156 33.152344 11.644531 33.523438 12.535156 33.824219 C 13.355469 33.953125 13.617188 33.445312 13.617188 33.003906 L 13.617188 30.234375 C 9.082031 31.222656 8.117188 28.042969 8.117188 28.042969 C 7.367188 26.144531 6.300781 25.636719 6.300781 25.636719 C 4.808594 24.621094 6.414062 24.652344 6.414062 24.652344 C 8.050781 24.769531 8.917969 26.339844 8.917969 26.339844 C 10.34375 28.828125 12.75 28.09375 13.683594 27.699219 C 13.832031 26.636719 14.261719 25.914062 14.714844 25.503906 C 11.074219 25.097656 7.265625 23.6875 7.265625 17.449219 C 7.265625 15.632812 7.886719 14.175781 8.949219 13.011719 C 8.789062 12.605469 8.214844 10.902344 9.113281 8.691406 C 9.113281 8.691406 10.492188 8.25 13.617188 10.363281 C 16.347656 9.628906 19.074219 9.628906 21.804688 10.363281 C 24.933594 8.25 26.304688 8.691406 26.304688 8.691406 C 27.207031 10.902344 26.632812 12.605469 26.46875 13.011719 C 27.535156 14.171875 28.15625 15.632812 28.15625 17.449219 C 28.15625 23.703125 24.324219 25.078125 20.675781 25.488281 C 21.261719 25.996094 21.804688 26.996094 21.804688 28.515625 L 21.804688 33.003906 C 21.804688 33.445312 22.066406 33.96875 22.902344 33.824219 C 23.851562 33.503906 24.765625 33.101562 25.644531 32.613281 C 26.523438 32.125 27.347656 31.5625 28.125 30.925781 C 28.898438 30.285156 29.605469 29.582031 30.253906 28.8125 C 30.898438 28.042969 31.464844 27.222656 31.960938 26.347656 C 32.453125 25.472656 32.863281 24.5625 33.191406 23.613281 C 33.515625 22.664062 33.753906 21.691406 33.902344 20.699219 C 34.050781 19.707031 34.105469 18.707031 34.070312 17.707031 C 34.035156 16.703125 33.910156 15.710938 33.691406 14.730469 C 33.472656 13.75 33.167969 12.796875 32.777344 11.875 C 32.382812 10.949219 31.910156 10.070312 31.355469 9.234375 C 30.800781 8.398438 30.175781 7.617188 29.476562 6.894531 C 28.78125 6.171875 28.023438 5.519531 27.207031 4.9375 C 26.386719 4.355469 25.523438 3.851562 24.613281 3.429688 C 23.703125 3.003906 22.765625 2.667969 21.792969 2.417969 C 20.820312 2.164062 19.832031 2.003906 18.832031 1.933594 C 17.832031 1.863281 16.832031 1.886719 15.832031 2 Z M 15.832031 2 " fill-opacity="1" fill-rule="nonzero"/></g></svg>