<svg xmlns="http://www.w3.org/2000/svg" xmlns:xlink="http://www.w3.org/1999/xlink" width="48" zoomAndPan="magnify" viewBox="0 0 36 36.000001" height="48" preserveAspectRatio="xMidYMid meet" version="1.0"><defs><clipPath id="c9ba615ccb"><path d="M 1.539062 1.050781 L 34.375 1.050781 L 34.375 33.886719 L 1.539062 33.886719 Z M 1.539062 1.050781 " clip-rule="nonzero"/></clipPath></defs><g clip-path="url(#c9ba615ccb)"><path fill="#cc5fc6" d="M 34.457031 17.507812 C 34.457031 18.046875 34.429688 18.585938 34.375 19.121094 C 34.324219 19.660156 34.246094 20.191406 34.140625 20.71875 C 34.035156 21.25 33.902344 21.773438 33.746094 22.289062 C 33.589844 22.804688 33.410156 23.308594 33.203125 23.808594 C 32.996094 24.304688 32.765625 24.792969 32.511719 25.269531 C 32.257812 25.742188 31.980469 26.207031 31.683594 26.652344 C 31.382812 27.101562 31.0625 27.535156 30.71875 27.949219 C 30.378906 28.367188 30.015625 28.765625 29.636719 29.148438 C 29.253906 29.527344 28.855469 29.890625 28.4375 30.234375 C 28.023438 30.574219 27.589844 30.894531 27.140625 31.195312 C 26.691406 31.492188 26.230469 31.769531 25.753906 32.023438 C 25.28125 32.277344 24.792969 32.507812 24.296875 32.714844 C 23.796875 32.921875 23.289062 33.101562 22.773438 33.257812 C 22.257812 33.417969 21.738281 33.546875 21.207031 33.652344 C 20.679688 33.757812 20.148438 33.835938 19.609375 33.890625 C 19.074219 33.941406 18.535156 33.96875 17.996094 33.96875 C 17.457031 33.96875 16.921875 33.941406 16.382812 33.890625 C 15.847656 33.835938 15.316406 33.757812 14.785156 33.652344 C 14.257812 33.546875 13.734375 33.417969 13.21875 33.257812 C 12.703125 33.101562 12.195312 32.921875 11.699219 32.714844 C 11.199219 32.507812 10.714844 32.277344 10.238281 32.023438 C 9.761719 31.769531 9.300781 31.492188 8.851562 31.195312 C 8.40625 30.894531 7.972656 30.574219 7.554688 30.234375 C 7.140625 29.890625 6.738281 29.527344 6.359375 29.148438 C 5.976562 28.765625 5.617188 28.367188 5.273438 27.949219 C 4.933594 27.535156 4.613281 27.101562 4.3125 26.652344 C 4.011719 26.207031 3.734375 25.742188 3.480469 25.269531 C 3.226562 24.792969 2.996094 24.304688 2.789062 23.808594 C 2.585938 23.308594 2.402344 22.804688 2.246094 22.289062 C 2.089844 21.773438 1.960938 21.25 1.855469 20.71875 C 1.75 20.191406 1.671875 19.660156 1.617188 19.121094 C 1.566406 18.585938 1.539062 18.046875 1.539062 17.507812 C 1.539062 16.96875 1.566406 16.433594 1.617188 15.894531 C 1.671875 15.359375 1.75 14.828125 1.855469 14.296875 C 1.960938 13.769531 2.089844 13.246094 2.246094 12.730469 C 2.402344 12.214844 2.585938 11.710938 2.789062 11.210938 C 2.996094 10.714844 3.226562 10.226562 3.480469 9.75 C 3.734375 9.277344 4.011719 8.8125 4.3125 8.367188 C 4.613281 7.917969 4.933594 7.484375 5.273438 7.066406 C 5.617188 6.652344 5.976562 6.253906 6.359375 5.871094 C 6.738281 5.492188 7.140625 5.128906 7.554688 4.785156 C 7.972656 4.445312 8.40625 4.125 8.851562 3.824219 C 9.300781 3.523438 9.761719 3.25 10.238281 2.996094 C 10.714844 2.738281 11.199219 2.511719 11.699219 2.304688 C 12.195312 2.097656 12.703125 1.914062 13.21875 1.757812 C 13.734375 1.601562 14.257812 1.472656 14.785156 1.367188 C 15.316406 1.261719 15.847656 1.183594 16.382812 1.128906 C 16.921875 1.078125 17.457031 1.050781 17.996094 1.050781 C 18.535156 1.050781 19.074219 1.078125 19.609375 1.128906 C 20.148438 1.183594 20.679688 1.261719 21.207031 1.367188 C 21.738281 1.472656 22.257812 1.601562 22.773438 1.757812 C 23.289062 1.914062 23.796875 2.097656 24.296875 2.304688 C 24.792969 2.511719 25.28125 2.738281 25.753906 2.996094 C 26.230469 3.25 26.691406 3.523438 27.140625 3.824219 C 27.589844 4.125 28.023438 4.445312 28.4375 4.785156 C 28.855469 5.128906 29.253906 5.492188 29.636719 5.871094 C 30.015625 6.253906 30.378906 6.652344 30.71875 7.066406 C 31.0625 7.484375 31.382812 7.917969 31.683594 8.367188 C 31.980469 8.8125 32.257812 9.277344 32.511719 9.75 C 32.765625 10.226562 32.996094 10.714844 33.203125 11.210938 C 33.410156 11.710938 33.589844 12.214844 33.746094 12.730469 C 33.902344 13.246094 34.035156 13.769531 34.140625 14.296875 C 34.246094 14.828125 34.324219 15.359375 34.375 15.894531 C 34.429688 16.433594 34.457031 16.96875 34.457031 17.507812 Z M 34.457031 17.507812 " fill-opacity="1" fill-rule="nonzero"/></g><path fill="#ffffff" d="M 8.136719 11.511719 C 8.304688 11.398438 8.503906 11.335938 8.722656 11.335938 L 27.175781 11.335938 C 27.417969 11.335938 27.640625 11.417969 27.820312 11.554688 L 17.953125 16.90625 Z M 28.109375 23.128906 C 28.1875 22.976562 28.234375 22.808594 28.234375 22.625 L 28.234375 12.523438 L 22.148438 15.769531 Z M 7.660156 12.453125 L 7.660156 22.625 C 7.660156 22.71875 7.671875 22.808594 7.695312 22.894531 L 13.757812 15.769531 Z M 21.199219 16.300781 L 18.214844 17.976562 C 18.132812 18.019531 18.042969 18.042969 17.953125 18.042969 C 17.863281 18.042969 17.777344 18.019531 17.695312 17.976562 L 14.707031 16.300781 L 8.445312 23.648438 C 8.535156 23.671875 8.625 23.683594 8.722656 23.683594 L 27.175781 23.683594 C 27.183594 23.683594 27.1875 23.683594 27.195312 23.683594 Z M 21.199219 16.300781 " fill-opacity="1" fill-rule="nonzero"/></svg>