<svg xmlns="http://www.w3.org/2000/svg" xmlns:xlink="http://www.w3.org/1999/xlink" width="48" zoomAndPan="magnify" viewBox="0 0 36 36.000001" height="48" preserveAspectRatio="xMidYMid meet" version="1.0"><defs><clipPath id="80e3d0d9c4"><path d="M 2.949219 3.503906 L 32.867188 3.503906 L 32.867188 33.421875 L 2.949219 33.421875 Z M 2.949219 3.503906 " clip-rule="nonzero"/></clipPath></defs><g clip-path="url(#80e3d0d9c4)"><path fill="#da2c7d" d="M 30.535156 3.503906 L 5.480469 3.503906 C 4.09375 3.503906 2.980469 4.632812 2.980469 6.003906 L 2.980469 31.105469 C 2.980469 32.488281 4.109375 33.605469 5.480469 33.605469 L 30.519531 33.605469 C 31.90625 33.605469 33.019531 32.476562 33.019531 31.105469 L 33.019531 6.003906 C 33.035156 4.632812 31.921875 3.503906 30.535156 3.503906 Z M 11.878906 28.332031 L 7.4375 28.332031 L 7.4375 14.992188 L 11.878906 14.992188 Z M 9.648438 13.382812 C 8.25 13.382812 7.121094 12.25 7.121094 10.851562 C 7.121094 9.449219 8.25 8.320312 9.648438 8.320312 C 11.050781 8.320312 12.179688 9.449219 12.179688 10.851562 C 12.179688 12.25 11.050781 13.382812 9.648438 13.382812 Z M 28.59375 28.332031 L 24.136719 28.332031 L 24.03125 20.414062 C 24.03125 20.414062 24.136719 18.304688 21.832031 18.320312 C 19.527344 18.335938 19.210938 20.414062 19.210938 20.414062 L 19.210938 28.332031 L 14.726562 28.332031 L 14.726562 14.992188 L 19.03125 14.992188 L 19.03125 16.828125 C 19.03125 16.828125 19.210938 16.226562 20.207031 15.519531 C 21.199219 14.8125 22.839844 14.660156 23.550781 14.691406 C 24.257812 14.722656 25.21875 14.601562 26.832031 15.714844 C 28.5625 16.90625 28.609375 20.023438 28.609375 20.023438 Z M 28.59375 28.332031 " fill-opacity="1" fill-rule="nonzero"/></g></svg>