<svg xmlns="http://www.w3.org/2000/svg" xmlns:xlink="http://www.w3.org/1999/xlink" width="48" zoomAndPan="magnify" viewBox="0 0 36 36.000001" height="48" preserveAspectRatio="xMidYMid meet" version="1.0"><defs><clipPath id="a079e478ec"><path d="M 1.539062 1.109375 L 34.375 1.109375 L 34.375 33.949219 L 1.539062 33.949219 Z M 1.539062 1.109375 " clip-rule="nonzero"/></clipPath></defs><g clip-path="url(#a079e478ec)"><path fill="#d344a0" d="M 18.003906 1.125 C 8.90625 1.125 1.539062 8.496094 1.539062 17.589844 C 1.539062 25.757812 7.496094 32.546875 15.292969 33.828125 L 15.292969 22.667969 L 11.101562 22.667969 L 11.101562 17.777344 L 15.292969 17.777344 L 15.292969 14.226562 C 15.292969 10.378906 18.417969 7.769531 22.265625 7.769531 C 23.976562 7.769531 25.046875 8.023438 25.046875 8.023438 L 25.046875 12.128906 L 22.265625 12.128906 C 21.109375 12.128906 20.171875 13.070312 20.171875 14.226562 L 20.171875 17.777344 L 24.660156 17.777344 L 24.035156 22.667969 L 20.171875 22.667969 L 20.171875 33.898438 C 28.226562 32.832031 34.441406 25.929688 34.441406 17.589844 C 34.453125 8.496094 27.085938 1.125 18.003906 1.125 Z M 18.003906 1.125 " fill-opacity="1" fill-rule="nonzero"/></g></svg>